:version 1.10
:name ASF
:units
  mass 1
  length 1
  angle deg
:documentation
  ASF file generated by Kaydara
:root
  axis xyz
  order  tx ty tz rx ry rz
  position 0 0 0
  orientation 0 0 0
:bonedata
  begin
    id 1
    name RightUpLegDummy
    direction -0.718183 -0.695806 0.00816078
    length 4.904
    axis 0 0 0 xyz
  end
  begin
    id 2
    name RightUpLeg
    direction 3.53989e-006 -0.995788 0.0916897
    length 17.4976
    axis -3.49089 -0.000906621 0.000287158 xyz
    dof rx ry rz
  end
  begin
    id 3
    name RightLeg
    direction 0.00371093 -0.995096 -0.0988418
    length 16.5821
    axis 3.68512 0.0193738 -0.131023 xyz
    dof rx ry rz
  end
  begin
    id 4
    name RightFoot
    direction 0.000791514 -0.46099 0.887405
    length 3.77069
    axis 4.84075e-005 -0.120479 -0.188788 xyz
    dof rx ry rz
  end
  begin
    id 5
    name RightToes
    direction 0.00124746 -0.014064 0.9999
    length 3.85082
    axis 0.00048216 0.542163 -0.142577 xyz
    dof rx ry rz
  end
  begin
    id 6
    name SpineDummy
    direction 8.36599e-015 1 5.97571e-016
    length 4.6813
    axis 0 0 0 xyz
  end
  begin
    id 7
    name Spine
    direction -4.63632e-008 0.999988 0.00495137
    length 10.1015
    axis -0.00138897 0.000121419 3.25764e-006 xyz
    dof rx ry rz
  end
  begin
    id 8
    name Spine1
    direction 0 0 0
    length 0
    axis -0.00138896 0.000121452 2.39764e-006 xyz
    dof rx ry rz
  end
  begin
    id 9
    name HEadDummy
    direction -3.91456e-008 0.999999 0.00127422
    length 3.43865
    axis -0.00138896 0.000121452 2.39764e-006 xyz
  end
  begin
    id 10
    name HEad
    direction -0.0222688 0.980941 0.193023
    length 5.12695
    axis -0.00138895 0.000121452 2.39764e-006 xyz
    dof rx ry rz
  end
  begin
    id 11
    name LeftShoulder1Dummy
    direction 0.998891 -0.0402508 -0.0244456
    length 3.5433
    axis -0.00138896 0.000121452 2.39764e-006 xyz
  end
  begin
    id 12
    name LeftShoulder1
    direction 0.99951 -0.000327743 0.0313091
    length 4.05031
    axis -0.00138896 0.000121452 2.39764e-006 xyz
    dof rx ry rz
  end
  begin
    id 13
    name LeftArm
    direction 0.998561 -0.00100054 -0.0536182
    length 10.3537
    axis -23.1894 0.134784 0.96751 xyz
    dof rx ry rz
  end
  begin
    id 14
    name LeftForeArm
    direction 0.998903 0.00866434 0.046012
    length 8.70632
    axis -9.91835 -0.06569 -0.177792 xyz
    dof rx ry rz
  end
  begin
    id 15
    name LeftHand
    direction 0.992938 -0.0411636 0.11126
    length 5.32135
    axis -0.00960227 -0.00340091 0.185174 xyz
    dof rx ry rz
  end
  begin
    id 16
    name RightShoulderDummy
    direction -0.998891 -0.0402509 -0.0244414
    length 3.5433
    axis -0.00138896 0.000121452 2.39764e-006 xyz
  end
  begin
    id 17
    name RightShoulder
    direction -0.99951 -0.000327827 0.0313133
    length 4.05031
    axis 0.215806 0.000203644 -0.00680151 xyz
    dof rx ry rz
  end
  begin
    id 18
    name RightArm
    direction -0.998573 -0.000999583 -0.053403
    length 10.3947
    axis -23.2009 -0.134239 -0.9641 xyz
    dof rx ry rz
  end
  begin
    id 19
    name RightForeArm
    direction -0.998898 0.00868026 0.0461306
    length 8.68355
    axis -9.92322 0.0658061 0.178869 xyz
    dof rx ry rz
  end
  begin
    id 20
    name RightHand
    direction -0.992843 -0.0414603 0.112003
    length 5.28593
    axis -0.00960634 0.00330671 -0.185226 xyz
    dof rx ry rz
  end
  begin
    id 21
    name LeftUpLegDummy
    direction 0.718183 -0.695806 0.00816078
    length 4.904
    axis 0 0 0 xyz
  end
  begin
    id 22
    name LeftUpLeg
    direction -6.8115e-006 -0.995793 0.0916336
    length 17.4976
    axis -3.48766 0.00143441 -0.000523914 xyz
    dof rx ry rz
  end
  begin
    id 23
    name LeftLeg
    direction -0.00601357 -0.995091 -0.0987824
    length 16.5821
    axis 3.68177 -0.00654038 -0.00028478 xyz
    dof rx ry rz
  end
  begin
    id 24
    name LeftFoot
    direction -0.00417578 -0.460984 0.887399
    length 3.77069
    axis 1.87232e-006 4.66002e-005 -8.1837e-006 xyz
    dof rx ry rz
  end
  begin
    id 25
    name LeftToes
    direction 0.00818058 -0.00485161 0.999955
    length 3.85048
    axis 1.06246e-005 4.65855e-005 -8.18502e-006 xyz
    dof rx ry rz
  end
:hierarchy
  begin
    root RightUpLegDummy SpineDummy LeftUpLegDummy
    RightUpLegDummy RightUpLeg
    RightUpLeg RightLeg
    RightLeg RightFoot
    RightFoot RightToes
    SpineDummy Spine
    Spine Spine1
    Spine1 HEadDummy LeftShoulder1Dummy RightShoulderDummy
    HEadDummy HEad
    LeftShoulder1Dummy LeftShoulder1
    LeftShoulder1 LeftArm
    LeftArm LeftForeArm
    LeftForeArm LeftHand
    RightShoulderDummy RightShoulder
    RightShoulder RightArm
    RightArm RightForeArm
    RightForeArm RightHand
    LeftUpLegDummy LeftUpLeg
    LeftUpLeg LeftLeg
    LeftLeg LeftFoot
    LeftFoot LeftToes
  end

:SAMPLES-PER-SECOND 30
:FULLY-SPECIFIED
:DEGREES
1
root  20.768 37.0401 19.7858 7.65746 -1.52094 1.91188
RightUpLeg  -19.3608 10.3421 3.18614
RightLeg  43.3583 -10.9775 -11.193
RightFoot  -32.8127 0.179691 2.12654
RightToes  12.1998 0.0154924 0.117784
Spine  -14.6637 -0.220657 -1.44139
Spine1  6.09707 -0.21842 5.24088
HEad  34.2703 -8.51598 -5.20566
LeftShoulder1  -7.76503e-019 -2.42657e-020 -1.34036e-021
LeftArm  -1.7547 26.9047 -82.8615
LeftForeArm  16.0136 -31.1832 -5.93484
LeftHand  7.03251 50.0304 16.9602
RightShoulder  7.45443e-017 -2.42657e-020 1.96277e-018
RightArm  -10.5321 -28.336 81.1372
RightForeArm  22.6116 30.6289 5.42753
RightHand  -3.72298 17.9806 -18.6917
LeftUpLeg  -19.3427 -0.671027 -4.35287
LeftLeg  42.6898 10.6516 10.729
LeftFoot  -25.3097 -0.0469184 -1.62409
LeftToes  -16.6907 1.06988e-006 1.21085e-007
2
root  20.7614 37.025 19.7771 7.56215 -1.5637 1.69261
RightUpLeg  -19.1689 9.51799 3.39856
RightLeg  43.0577 -10.8046 -10.917
RightFoot  -32.8154 0.172938 2.09075
RightToes  9.87361 0.0164183 0.0950737
Spine  -14.0514 -0.093755 -1.16206
Spine1  6.39754 -0.203394 5.2082
HEad  33.7828 -9.17315 -5.20511
LeftShoulder1  -7.76503e-019 -2.42657e-020 -1.34036e-021
LeftArm  -1.59932 26.3143 -82.8349
LeftForeArm  15.728 -30.5299 -5.79135
LeftHand  7.06771 50.5123 16.8416
RightShoulder  7.45443e-017 -2.42657e-020 1.96277e-018
RightArm  -11.4836 -27.4238 81.5106
RightForeArm  23.6804 30.0192 5.22316
RightHand  -3.51109 17.7083 -17.8711
LeftUpLeg  -19.4652 -0.535211 -4.07479
LeftLeg  43.0977 10.7429 10.9625
LeftFoot  -25.7886 -0.0540874 -1.64923
LeftToes  -17.1648 1.06988e-006 1.21085e-007
3
root  20.7414 36.9286 19.7831 7.57717 -1.75591 1.5991
RightUpLeg  -19.4674 12.1178 3.23791
RightLeg  42.9612 -10.3794 -10.4798
RightFoot  -35.8433 0.197267 2.03584
RightToes  14.3743 0.0184235 0.13905
Spine  -13.5218 -0.13531 -0.980737
Spine1  6.48041 -0.240473 5.44259
HEad  33.5698 -9.27673 -5.47122
LeftShoulder1  -7.76503e-019 -2.42657e-020 -1.34036e-021
LeftArm  -2.47512 26.2419 -83.0722
LeftForeArm  16.4045 -29.829 -5.58456
LeftHand  6.8447 50.237 16.447
RightShoulder  7.45443e-017 -2.42657e-020 1.96277e-018
RightArm  -11.6253 -26.6228 81.3276
RightForeArm  23.8591 29.4898 5.08959
RightHand  -3.4011 17.6948 -17.3437
LeftUpLeg  -19.5349 -0.84874 -3.9939
LeftLeg  43.3561 11.2149 11.5074
LeftFoot  -26.1916 -0.0683968 -1.73257
LeftToes  -17.5426 1.06988e-006 1.21085e-007
4
root  20.7428 36.9778 19.7947 7.97122 -2.24893 1.72071
RightUpLeg  -19.7243 9.02961 3.08049
RightLeg  43.4696 -12.1883 -12.3869
RightFoot  -36.7614 0.283791 2.37243
RightToes  -9.93902 -0.0327449 -0.0914322
Spine  -13.2843 0.045359 -1.12714
Spine1  6.58488 -0.202504 5.61233
HEad  33.2525 -9.61987 -5.65775
LeftShoulder1  -7.76503e-019 -2.42657e-020 -1.34036e-021
LeftArm  -4.39217 26.204 -83.2623
LeftForeArm  17.9996 -29.7646 -5.47976
LeftHand  6.59464 50.2441 15.8743
RightShoulder  7.45443e-017 -2.42657e-020 1.96277e-018
RightArm  -11.8437 -25.735 80.9813
RightForeArm  24.8688 29.1391 4.95279
RightHand  -3.31353 17.6856 -16.9217
LeftUpLeg  -19.823 -0.989928 -4.18516
LeftLeg  43.3243 11.4783 11.7454
LeftFoot  -26.7301 -0.0775889 -1.76354
LeftToes  -16.8232 1.06988e-006 1.21085e-007
5
root  20.7317 36.9226 19.8004 8.3999 -2.75201 1.61712
RightUpLeg  -20.1574 10.5497 2.90978
RightLeg  43.3885 -12.6426 -12.7805
RightFoot  -37.9961 0.324093 2.46593
RightToes  -10.0847 -0.0333415 -0.0927265
Spine  -12.7405 0.211261 -0.980608
Spine1  6.73741 -0.160765 5.43488
HEad  32.6186 -9.82134 -5.28746
LeftShoulder1  -7.76503e-019 -2.42657e-020 -1.34036e-021
LeftArm  -7.98545 25.9102 -82.6698
LeftForeArm  21.7833 -30.1522 -5.35955
LeftHand  5.57257 49.7019 13.7188
RightShoulder  7.45443e-017 -2.42657e-020 1.96277e-018
RightArm  -12.8439 -24.3485 80.6419
RightForeArm  27.3517 28.37 4.64238
RightHand  -3.39367 18.8439 -16.5161
LeftUpLeg  -20.3386 -0.927768 -4.09569
LeftLeg  43.5761 11.7569 12.1099
LeftFoot  -27.4348 -0.0917877 -1.81617
LeftToes  -16.1549 1.06988e-006 1.21085e-007
6
root  20.7257 36.8926 19.8061 8.83023 -2.9336 1.61548
RightUpLeg  -20.5536 11.1485 2.75755
RightLeg  43.2008 -12.9295 -12.9677
RightFoot  -38.4414 0.343685 2.51837
RightToes  -10.7247 -0.0360014 -0.0983947
Spine  -11.8769 0.142994 -0.999908
Spine1  6.65228 -0.186368 5.50763
HEad  31.8547 -10.1276 -5.07862
LeftShoulder1  -7.76503e-019 -2.42657e-020 -1.34036e-021
LeftArm  -12.9666 25.8824 -81.223
LeftForeArm  26.0674 -30.5531 -5.21502
LeftHand  5.84351 48.2619 14.8703
RightShoulder  7.45443e-017 -2.42657e-020 1.96277e-018
RightArm  -15.2273 -23.4207 78.9116
RightForeArm  31.3353 27.4274 4.22085
RightHand  -4.07198 25.5509 -15.5197
LeftUpLeg  -20.7964 -0.996392 -4.0764
LeftLeg  43.8723 12.0312 12.493
LeftFoot  -28.3034 -0.108267 -1.86799
LeftToes  -17.3513 1.06988e-006 1.21085e-007
